<svg xmlns="http://www.w3.org/2000/svg" width="332.729" height="92.881" viewBox="0 0 332.729 92.881" class="header__logo">
  <g id="Сгруппировать_29" data-name="Сгруппировать 29" transform="translate(-31.97 -30.86)">
    <g id="Сгруппировать_2" data-name="Сгруппировать 2">
      <g id="Сгруппировать_1" data-name="Сгруппировать 1">
        <path id="Контур_18" data-name="Контур 18" d="M301.946,91.112v1.833h-1.884V91.112Z" fill="#313437"/>
        <path id="Контур_19" data-name="Контур 19" d="M306.152,81.741a2.018,2.018,0,0,0-.488,1.542v.257h2.227v1.37h-2.227v8.035H304.1V84.91h-1.353V83.54H304.1v-.377q0-3.375,3.787-3.221v1.37A2.553,2.553,0,0,0,306.152,81.741Z" fill="#313437"/>
        <path id="Контур_20" data-name="Контур 20" d="M315.763,84.105a3.581,3.581,0,0,1,1.328,1.833v-2.4h1.559v9.4h-1.559v-2.4a3.577,3.577,0,0,1-1.328,1.833,3.864,3.864,0,0,1-2.321.685,4.262,4.262,0,0,1-2.228-.583,4.013,4.013,0,0,1-1.533-1.67,6.184,6.184,0,0,1,0-5.13A4.008,4.008,0,0,1,311.214,84a4.262,4.262,0,0,1,2.228-.583A3.864,3.864,0,0,1,315.763,84.105Zm-4.18,1.62a4.122,4.122,0,0,0,0,5.053,3.016,3.016,0,0,0,2.3.916,3.207,3.207,0,0,0,1.654-.427,3,3,0,0,0,1.139-1.208,3.823,3.823,0,0,0,.411-1.808,3.873,3.873,0,0,0-.411-1.816,2.929,2.929,0,0,0-1.139-1.208,3.251,3.251,0,0,0-1.654-.419A3.017,3.017,0,0,0,311.583,85.725Z" fill="#313437"/>
        <path id="Контур_21" data-name="Контур 21" d="M326.641,84.251a3.5,3.5,0,0,1,1.174,2.235h-1.491a2.158,2.158,0,0,0-.694-1.379,2.262,2.262,0,0,0-1.584-.54,1.953,1.953,0,0,0-1.311.4,1.355,1.355,0,0,0-.471,1.088,1.127,1.127,0,0,0,.317.831,2.028,2.028,0,0,0,.788.479,13.074,13.074,0,0,0,1.294.351,12.827,12.827,0,0,1,1.687.488,2.648,2.648,0,0,1,1.1.8,2.236,2.236,0,0,1,.454,1.473,2.316,2.316,0,0,1-.865,1.868,3.492,3.492,0,0,1-2.3.719,4.413,4.413,0,0,1-2.741-.805,3.21,3.21,0,0,1-1.251-2.244h1.508a1.958,1.958,0,0,0,.745,1.387,2.685,2.685,0,0,0,1.739.531,1.8,1.8,0,0,0,1.259-.411,1.384,1.384,0,0,0,.454-1.079,1.186,1.186,0,0,0-.325-.874,2.134,2.134,0,0,0-.806-.5,12.115,12.115,0,0,0-1.318-.359,12.873,12.873,0,0,1-1.671-.48,2.56,2.56,0,0,1-1.062-.762,2.138,2.138,0,0,1-.437-1.413,2.366,2.366,0,0,1,.874-1.911,3.607,3.607,0,0,1,2.381-.728A3.8,3.8,0,0,1,326.641,84.251Z" fill="#313437"/>
        <path id="Контур_22" data-name="Контур 22" d="M337.6,84.439a4.223,4.223,0,0,1,1.011,3.041v5.465h-1.559V87.617a3.008,3.008,0,0,0-.719-2.158,2.572,2.572,0,0,0-1.954-.754,2.669,2.669,0,0,0-2.055.831,3.44,3.44,0,0,0-.771,2.424v4.985h-1.559V80.268h1.559v5.5A3.2,3.2,0,0,1,332.826,84a3.7,3.7,0,0,1,2.116-.617A3.511,3.511,0,0,1,337.6,84.439Z" fill="#313437"/>
        <path id="Контур_23" data-name="Контур 23" d="M341.023,80.088a1.25,1.25,0,0,1,1.542,0,.971.971,0,0,1,0,1.388,1.254,1.254,0,0,1-1.542,0,.973.973,0,0,1,0-1.388Zm1.542,3.452v9.4h-1.559v-9.4Z" fill="#313437"/>
        <path id="Контур_24" data-name="Контур 24" d="M351.756,84a4.165,4.165,0,0,1,1.68,1.679,5.723,5.723,0,0,1,0,5.13,4.174,4.174,0,0,1-1.68,1.67,5.331,5.331,0,0,1-4.848,0,4.221,4.221,0,0,1-1.687-1.67,5.64,5.64,0,0,1,0-5.13A4.212,4.212,0,0,1,346.908,84a5.331,5.331,0,0,1,4.848,0Zm-3.974,1.164a2.842,2.842,0,0,0-1.148,1.157,3.9,3.9,0,0,0-.437,1.927,3.856,3.856,0,0,0,.437,1.91,2.822,2.822,0,0,0,1.148,1.156,3.377,3.377,0,0,0,3.1,0,2.834,2.834,0,0,0,1.148-1.156,3.856,3.856,0,0,0,.436-1.91,3.9,3.9,0,0,0-.436-1.927,2.855,2.855,0,0,0-1.148-1.157,3.385,3.385,0,0,0-3.1,0Z" fill="#313437"/>
        <path id="Контур_25" data-name="Контур 25" d="M363.688,84.439A4.223,4.223,0,0,1,364.7,87.48v5.465h-1.558V87.617a3.008,3.008,0,0,0-.72-2.158,2.572,2.572,0,0,0-1.953-.754,2.67,2.67,0,0,0-2.056.831,3.44,3.44,0,0,0-.771,2.424v4.985h-1.559v-9.4h1.559v2.227A3.2,3.2,0,0,1,358.917,84a3.7,3.7,0,0,1,2.116-.617A3.51,3.51,0,0,1,363.688,84.439Z" fill="#313437"/>
      </g>
      <rect id="Прямоугольник_1" data-name="Прямоугольник 1" width="6.29" height="56.757" transform="translate(223.365 36.188)" fill="#313437"/>
      <path id="Контур_26" data-name="Контур 26" d="M219.5,77.3a15.649,15.649,0,1,0-15.65,15.649H219.5Zm-25.009,0a9.359,9.359,0,1,1,9.359,9.359A9.36,9.36,0,0,1,194.49,77.3" fill="#313437"/>
      <path id="Контур_27" data-name="Контур 27" d="M283.87,61.646A15.649,15.649,0,1,0,299.519,77.3a15.649,15.649,0,0,0-15.649-15.65m0,25.009a9.36,9.36,0,1,1,9.36-9.359,9.359,9.359,0,0,1-9.36,9.359" fill="#313437"/>
      <path id="Контур_28" data-name="Контур 28" d="M248.938,61.647a15.649,15.649,0,1,0,13.473,23.58h-8.54a9.321,9.321,0,0,1-14.14-6.289H264.5a15.643,15.643,0,0,0-15.561-17.291m-8.118,11a9.347,9.347,0,0,1,16.236,0Z" fill="#313437"/>
      <path id="Контур_29" data-name="Контур 29" d="M168.694,61.647a15.6,15.6,0,0,0-12.5,6.261,15.63,15.63,0,0,0-28.137,9.059V92.945h6.29V76.967h.008a9.348,9.348,0,0,1,18.686,0h.008V92.945h6.29V76.967h.008a9.348,9.348,0,0,1,18.686,0h.008V92.945h6.29V76.967a15.647,15.647,0,0,0-15.641-15.32" fill="#313437"/>
    </g>
    <g id="Сгруппировать_5" data-name="Сгруппировать 5">
      <g id="Сгруппировать_4" data-name="Сгруппировать 4">
        <g id="Сгруппировать_3" data-name="Сгруппировать 3">
          <path id="Контур_30" data-name="Контур 30" d="M73.75,76.557a1.7,1.7,0,0,0-.163-.264,1.554,1.554,0,0,0-.141-.172,1.711,1.711,0,0,0-.7-.427,1.549,1.549,0,0,0-1.035,0,1.709,1.709,0,0,0-.7.428,1.805,1.805,0,0,0-.141.171,1.7,1.7,0,0,0-.162.264,1.68,1.68,0,0,0-.157.48,1.78,1.78,0,0,0-.027.276,1.523,1.523,0,0,0,.018.18,1.688,1.688,0,0,0,.14.528,1.8,1.8,0,0,0,.124.229,1.757,1.757,0,0,0,.184.229,1.709,1.709,0,0,0,.694.443,1.573,1.573,0,0,0,1.093,0,1.727,1.727,0,0,0,.878-.672,1.62,1.62,0,0,0,.124-.228,1.675,1.675,0,0,0,.141-.529,1.77,1.77,0,0,0,.018-.18,1.666,1.666,0,0,0-.028-.276A1.71,1.71,0,0,0,73.75,76.557Zm-1.427.781a.09.09,0,0,1-.011.022.107.107,0,0,1-.078.04h-.015a.106.106,0,0,1-.077-.04.091.091,0,0,1-.011-.022c0-.009-.013-.014-.013-.025a.1.1,0,0,1,.023-.055.088.088,0,0,1,.025-.029.129.129,0,0,1,.034-.014c.01,0,.016-.011.027-.011s.017.009.027.011a.11.11,0,0,1,.033.014.083.083,0,0,1,.025.028.1.1,0,0,1,.023.056C72.335,77.324,72.326,77.329,72.323,77.338Z" fill="#313437"/>
          <path id="Контур_31" data-name="Контур 31" d="M112.073,88.333a6.05,6.05,0,0,0-1.222-1.894,5.484,5.484,0,0,0-4.084-1.727,4.915,4.915,0,0,0-3.788,2.108,4.073,4.073,0,0,0-.726,2.074,3.756,3.756,0,0,0,.5,2.068,3.43,3.43,0,0,0,3.269,1.825l.006-.266a2.951,2.951,0,0,1-2.168-2.064,2.418,2.418,0,0,1,.591-2.483,3,3,0,0,1,2.316-.91,3.072,3.072,0,0,1,2.111,1.171,3.5,3.5,0,0,1,.828,2.31,4.781,4.781,0,0,1-.763,2.542,5.008,5.008,0,0,1-2.094,1.832,5.232,5.232,0,0,1-2.839.453,9.176,9.176,0,0,1-3.01-.958,17.975,17.975,0,0,1-2.838-1.767c-.657-.5-1.286-1.038-1.908-1.6l9.826-13.494a.443.443,0,0,0,0-.523l-3.723-5.113A12.766,12.766,0,0,0,107.8,70.76a5.854,5.854,0,0,0,.478-10.231,5.457,5.457,0,0,0-2.066-.714,6.289,6.289,0,0,0-2.1.121,6.144,6.144,0,0,0-3.429,2.19,4.755,4.755,0,0,0-.912,4,3.2,3.2,0,0,0,1.2,1.847,3.661,3.661,0,0,0,1.913.634,3.762,3.762,0,0,0,1.859-.367,2.228,2.228,0,0,0,1.208-1.364l-.242-.11a2.382,2.382,0,0,1-2.632.639,2.286,2.286,0,0,1-1.093-.637,1.6,1.6,0,0,1-.373-.981,3.368,3.368,0,0,1,3.038-3.237,3.2,3.2,0,0,1,2.21.367,3.554,3.554,0,0,1,1.462,1.781,3.377,3.377,0,0,1,.125,2.354,3.146,3.146,0,0,1-.241.516q-.2.241-.386.5c-.146.156-.323.29-.48.443a5.665,5.665,0,0,1-.562.385,12.476,12.476,0,0,1-5.684,1.288L93.978,60.41a30.388,30.388,0,0,0,2.375-5.682c.008-.028.015-.057.023-.086-.029.007-.059.012-.088.018a29.635,29.635,0,0,0-5.212,1.764l-2.582-3.546c1.139-.94,2.314-1.867,3.46-2.9a8.517,8.517,0,0,0,1.122-1.147,7.431,7.431,0,0,0,.888-1.426,6.966,6.966,0,0,0,.689-3.363,5.477,5.477,0,0,0-.4-1.8,5.391,5.391,0,0,0-1.039-1.579,5.094,5.094,0,0,0-3.4-1.595,4.254,4.254,0,0,0-1.982.4,4.584,4.584,0,0,0-1.517,1.171,5.656,5.656,0,0,0-1.273,3.206,4.7,4.7,0,0,0,.19,1.73,3.253,3.253,0,0,0,1,1.508,2.567,2.567,0,0,0,1.656.543A1.8,1.8,0,0,0,89.33,46.9a.136.136,0,0,0,0-.144.134.134,0,0,0-.185-.049l-.007,0a1.6,1.6,0,0,1-2.053-.519,2.529,2.529,0,0,1-.18-2.072,3.934,3.934,0,0,1,1.13-1.861,1.859,1.859,0,0,1,1.58-.527,2.861,2.861,0,0,1,1.6.853,2.928,2.928,0,0,1,.844,1.7,4.3,4.3,0,0,1-.236,2.191,5.186,5.186,0,0,1-.53,1.035,5.735,5.735,0,0,1-.8.947c-.963,1-2.017,1.956-3.067,2.949L72.585,31.032a.46.46,0,0,0-.717,0L57.025,51.414c-1.049-.993-2.1-1.952-3.066-2.948a5.786,5.786,0,0,1-.8-.947,5.156,5.156,0,0,1-.529-1.035,4.316,4.316,0,0,1-.237-2.192,2.943,2.943,0,0,1,.844-1.7,2.873,2.873,0,0,1,1.6-.853,1.858,1.858,0,0,1,1.579.528,3.926,3.926,0,0,1,1.13,1.861,2.53,2.53,0,0,1-.179,2.071,1.6,1.6,0,0,1-2.054.519l-.007,0a.136.136,0,0,0-.144,0,.134.134,0,0,0-.036.188,1.8,1.8,0,0,0,1.446.719,2.58,2.58,0,0,0,1.656-.543,3.248,3.248,0,0,0,1-1.508,4.725,4.725,0,0,0,.191-1.731,5.657,5.657,0,0,0-1.273-3.2,4.586,4.586,0,0,0-1.517-1.172,4.257,4.257,0,0,0-1.983-.4,5.1,5.1,0,0,0-3.4,1.594,5.411,5.411,0,0,0-1.039,1.579,5.513,5.513,0,0,0-.405,1.8,6.971,6.971,0,0,0,.69,3.363,7.34,7.34,0,0,0,.887,1.425A8.518,8.518,0,0,0,52.5,49.98c1.146,1.031,2.321,1.957,3.461,2.9l-2.583,3.546a29.553,29.553,0,0,0-5.212-1.764l-.087-.018c.008.029.015.058.023.086a30.414,30.414,0,0,0,2.374,5.681l-7.114,9.769a12.481,12.481,0,0,1-5.683-1.288,5.484,5.484,0,0,1-.561-.385c-.157-.153-.334-.287-.48-.443-.126-.171-.254-.337-.386-.5a3.02,3.02,0,0,1-.241-.515,3.371,3.371,0,0,1,.126-2.354A3.547,3.547,0,0,1,37.6,62.913a3.21,3.21,0,0,1,2.209-.367,3.366,3.366,0,0,1,3.038,3.236,1.593,1.593,0,0,1-.373.982,2.278,2.278,0,0,1-1.092.637,2.382,2.382,0,0,1-2.632-.639l-.243.11a2.233,2.233,0,0,0,1.209,1.363,3.749,3.749,0,0,0,1.859.368,3.663,3.663,0,0,0,1.913-.634,3.2,3.2,0,0,0,1.2-1.847,4.755,4.755,0,0,0-.911-4,6.14,6.14,0,0,0-3.428-2.19,6.3,6.3,0,0,0-2.1-.121,5.457,5.457,0,0,0-2.066.714,5.758,5.758,0,0,0,.478,10.231,12.777,12.777,0,0,0,5.436,1.161l-3.723,5.113a.443.443,0,0,0,0,.523l9.742,13.377c-.6.531-1.2,1.047-1.824,1.52a17.805,17.805,0,0,1-2.838,1.766,9.155,9.155,0,0,1-3.01.959,5.229,5.229,0,0,1-2.838-.453,5.011,5.011,0,0,1-2.1-1.832,4.8,4.8,0,0,1-.763-2.542,3.5,3.5,0,0,1,.829-2.31,3.068,3.068,0,0,1,2.111-1.171,3,3,0,0,1,2.315.91,2.416,2.416,0,0,1,.591,2.483,2.948,2.948,0,0,1-2.167,2.064l0,.266a3.433,3.433,0,0,0,3.27-1.825,3.765,3.765,0,0,0,.5-2.068,4.082,4.082,0,0,0-.726-2.074,4.917,4.917,0,0,0-3.789-2.108A5.48,5.48,0,0,0,33.6,86.246a6.039,6.039,0,0,0-1.222,1.894,6.126,6.126,0,0,0-.411,2.215,6.912,6.912,0,0,0,1.377,4.054,7.627,7.627,0,0,0,7.4,2.879,11.184,11.184,0,0,0,3.6-1.359,19.571,19.571,0,0,0,3.018-2.123c.592-.5,1.148-1.031,1.691-1.568l1.4,1.917A30.37,30.37,0,0,0,48.1,99.8c-.008.028-.015.058-.023.086.029-.006.058-.011.087-.018a29.634,29.634,0,0,0,5.178-1.748l6.415,8.809a7.047,7.047,0,0,1-.789,1.309A5.483,5.483,0,0,1,57,109.83a4.069,4.069,0,0,1-2.313.334,3.776,3.776,0,0,1-3.275-2.54,2.778,2.778,0,0,1,.2-2.036,2.271,2.271,0,0,1,1.645-1.161,1.929,1.929,0,0,1,1.967.733,2.357,2.357,0,0,1,.235,2.518l.2.174a2.878,2.878,0,0,0,.639-3.263,3.186,3.186,0,0,0-1.239-1.487,3.693,3.693,0,0,0-1.9-.547,4.233,4.233,0,0,0-3.516,1.739,5.171,5.171,0,0,0-.845,3.864,5.4,5.4,0,0,0,2.1,3.362,6.538,6.538,0,0,0,3.567,1.273,6.641,6.641,0,0,0,3.628-.871,7.734,7.734,0,0,0,2.6-2.438c.15-.224.288-.456.417-.691l10.752,14.766a.444.444,0,0,0,.717,0l10.753-14.766c.129.235.266.466.417.691a7.718,7.718,0,0,0,2.6,2.439,6.637,6.637,0,0,0,3.627.87,6.528,6.528,0,0,0,3.567-1.273,5.4,5.4,0,0,0,2.1-3.361,5.172,5.172,0,0,0-.844-3.865,4.23,4.23,0,0,0-3.517-1.738,3.674,3.674,0,0,0-1.9.547,3.171,3.171,0,0,0-1.238,1.486,2.878,2.878,0,0,0,.638,3.263l.2-.174a2.359,2.359,0,0,1,.235-2.518,1.93,1.93,0,0,1,1.968-.732,2.266,2.266,0,0,1,1.645,1.161,2.78,2.78,0,0,1,.2,2.035,3.774,3.774,0,0,1-3.275,2.54,4.056,4.056,0,0,1-2.312-.334,5.464,5.464,0,0,1-1.966-1.592,7.026,7.026,0,0,1-.789-1.309L91.11,98.12a29.634,29.634,0,0,0,5.178,1.748c.029.007.058.012.087.018-.008-.028-.015-.058-.023-.086A30.336,30.336,0,0,0,94,94.155l1.314-1.806c.569.566,1.151,1.123,1.772,1.65a19.629,19.629,0,0,0,3.019,2.123,11.178,11.178,0,0,0,3.6,1.359,7.628,7.628,0,0,0,7.4-2.879,6.912,6.912,0,0,0,1.377-4.054A6.13,6.13,0,0,0,112.073,88.333ZM101.265,71.925l3.6,4.94A33.29,33.29,0,0,0,96.568,73.8c-.112-.782-.262-1.552-.445-2.309.452.05.9.1,1.375.16,1.106.129,2.228.23,3.363.264C101,71.922,101.13,71.923,101.265,71.925ZM87.645,83.331A16.921,16.921,0,0,0,84.684,81.7c1.047.094,2.108.144,3.176.144a39.167,39.167,0,0,0,7.774-.805,23.5,23.5,0,0,1-2.364,7.151l-.218-.216A39.641,39.641,0,0,0,87.645,83.331Zm4.933,6.1c-.237.4-.483.783-.742,1.163a38.047,38.047,0,0,0-8.39-8.85,16.192,16.192,0,0,1,3.714,2.245,38.556,38.556,0,0,1,4.927,4.9ZM87.86,80.244a29.513,29.513,0,0,1-9-1.322c-.516-.167-1.022-.343-1.506-.54l0,0,.059-.1.1-.164.461-.8-.461-.8-.141-.244-.017-.03c.3-.122.6-.243.919-.353a29.051,29.051,0,0,1,9.559-1.5,37.51,37.51,0,0,1,8.018.895c.152.033.3.069.453.105s.3.067.453.1a33.413,33.413,0,0,1,5.467,1.838,33.526,33.526,0,0,1-5.47,1.826c-.15.037-.3.069-.453.1s-.3.071-.453.105A37.6,37.6,0,0,1,87.86,80.244Zm6.4-8.892c.314.009.623.042.933.066q.274,1.073.448,2.183a39.029,39.029,0,0,0-7.82-.817,34.314,34.314,0,0,0-4.857.342c.043-.031.086-.059.129-.09A28.115,28.115,0,0,1,94.261,71.352Zm-9.8.625a38.453,38.453,0,0,0,7.35-8.015,23.637,23.637,0,0,1,2.973,6.063c-.171,0-.344-.01-.514-.005A29.244,29.244,0,0,0,84.464,71.977ZM100,70.19c-.786,0-1.577-.017-2.374-.062-.616-.036-1.257-.071-1.9-.094a24.52,24.52,0,0,0-3.379-6.855c.409-.628.8-1.262,1.165-1.9ZM91.2,58.108q.414-.189.831-.367c.6-.253,1.2-.492,1.8-.7-.271.65-.578,1.3-.9,1.938-.148.3-.295.592-.453.885-.359.663-.749,1.316-1.156,1.963q-.123.193-.247.386c-.088.135-.17.272-.259.405A33.8,33.8,0,0,1,77.688,74.4c-.391.139-.772.29-1.15.448l-.982-1.7-.236-.41c2.5-5.022,7.3-9.8,12.792-13.018.137-.081.278-.156.416-.235s.262-.149.394-.222Q90.05,58.638,91.2,58.108ZM76.117,77.313l-.1.168-.24.416-.155.269-.267.462-.135.234-.288.5-.279.483-.485.84h-3.89l-.484-.839-.279-.483-.288-.5-.134-.233-.268-.464-.155-.268-.24-.416-.1-.168.133-.23.257-.445.142-.247.28-.484.118-.2.3-.526.243-.421.468-.811h3.89l.47.813.242.419.3.526.118.2.28.484.142.247.257.445Zm4.106-15.269a36.053,36.053,0,0,1,3.359-4.488c.208-.239.437-.455.652-.688a23.808,23.808,0,0,1,2.6,1.78,38.273,38.273,0,0,0-8.849,7.365C78.686,64.659,79.4,63.317,80.223,62.044Zm-1.085.4a46.162,46.162,0,0,0,2.038-7.094q.927.38,1.812.835c-.142.181-.29.359-.428.544A37.055,37.055,0,0,0,79.138,62.444Zm8.43-8.79c.08-.069.163-.136.244-.2l2.445,3.358c-.876.413-1.748.857-2.608,1.35a24.6,24.6,0,0,0-2.788-1.952C85.726,55.319,86.619,54.461,87.568,53.654Zm-.786-1.618c-.123.12-.248.236-.371.357a41.132,41.132,0,0,0-2.858,3.084q-1.084-.566-2.228-1.023a15.671,15.671,0,0,0,.183-2.235c0-5.043,0-6.679-2.876-11.375ZM72.227,34.112C79.91,45.279,79.91,45.617,79.91,52.219a13.714,13.714,0,0,1-.129,1.675c-.019.147-.037.293-.06.444s-.042.3-.069.45c-.994,5.71-4.674,13.992-6.844,17.557H71.75c-2.123-3.566-5.923-11.815-6.944-17.559-.027-.154-.046-.3-.069-.449s-.042-.3-.061-.444a13.277,13.277,0,0,1-.131-1.674C64.545,45.617,64.544,45.279,72.227,34.112Zm-8,27.932c.82,1.273,1.536,2.614,2.234,3.968a38.222,38.222,0,0,0-8.848-7.364,23.9,23.9,0,0,1,2.6-1.779c.215.232.444.449.652.688A35.977,35.977,0,0,1,64.231,62.044Zm-2.766-5.859q.889-.456,1.819-.838a47.041,47.041,0,0,0,2.252,7.561,37.333,37.333,0,0,0-3.643-6.178C61.755,56.545,61.607,56.367,61.465,56.185Zm4.359-15.344c-2.874,4.7-2.878,6.334-2.878,11.378a15.281,15.281,0,0,0,.187,2.234A24.511,24.511,0,0,0,60.9,55.477a41.134,41.134,0,0,0-2.858-3.084c-.123-.121-.247-.238-.371-.357ZM56.642,53.449c.081.069.164.136.244.2.948.807,1.842,1.665,2.706,2.552a24.718,24.718,0,0,0-2.787,1.952c-.861-.493-1.733-.937-2.609-1.35Zm-4.224,4.292q.417.177.831.367,1.155.528,2.282,1.151c.132.073.263.148.394.222s.279.155.417.235c5.5,3.22,10.3,8,12.792,13.017l-.238.411-.981,1.7c-.377-.157-.758-.308-1.147-.446A33.793,33.793,0,0,1,53.635,62.615c-.089-.133-.172-.27-.259-.405s-.166-.257-.247-.386c-.407-.647-.8-1.3-1.156-1.963-.159-.293-.305-.59-.454-.885-.322-.643-.63-1.288-.9-1.938C51.22,57.248,51.82,57.488,52.418,57.741ZM66.951,78.112l.1.164.06.1,0,0c-.484.2-.99.373-1.506.539a29.482,29.482,0,0,1-9,1.323,37.592,37.592,0,0,1-7.977-.884c-.152-.034-.3-.07-.453-.105s-.3-.067-.453-.1a33.494,33.494,0,0,1-5.47-1.826,33.432,33.432,0,0,1,5.466-1.837c.15-.037.3-.07.453-.1s.3-.071.453-.105a37.512,37.512,0,0,1,8.019-.895v-1.6h0a39.046,39.046,0,0,0-7.821.817q.174-1.11.449-2.183c.31-.024.618-.057.933-.066a28.108,28.108,0,0,1,11.168,1.685c.042.031.085.058.128.089a34.31,34.31,0,0,0-4.856-.342v1.6a29.052,29.052,0,0,1,9.559,1.5c.313.111.616.231.917.353l-.017.03-.141.244-.461.8ZM52.367,88.7a38.623,38.623,0,0,1,4.926-4.9,16.3,16.3,0,0,1,3.681-2.231c.116-.015.23-.034.345-.05a37.933,37.933,0,0,0-8.7,9.08c-.284-.417-.551-.846-.809-1.281Zm-.965-.919c-.1.094-.19.187-.284.282a23.506,23.506,0,0,1-2.3-7.024,39.185,39.185,0,0,0,7.775.805c.887,0,1.77-.038,2.646-.1a17.356,17.356,0,0,0-2.431,1.4A39.642,39.642,0,0,0,51.4,87.779ZM49.667,70.025a23.6,23.6,0,0,1,2.972-6.063,38.532,38.532,0,0,0,7.35,8.015,29.243,29.243,0,0,0-9.808-1.957C50.01,70.015,49.838,70.026,49.667,70.025Zm1.275-8.749c.365.64.756,1.274,1.166,1.9a24.485,24.485,0,0,0-3.379,6.856c-.647.023-1.288.058-1.9.094-.8.045-1.589.063-2.375.062ZM43.188,71.925c.135,0,.271,0,.406-.006,1.134-.034,2.256-.135,3.361-.264.471-.056.924-.11,1.376-.16q-.276,1.135-.445,2.309a33.337,33.337,0,0,0-8.3,3.061Zm5.586,18.412-9.1-12.5a33.511,33.511,0,0,0,8.223,3,24.383,24.383,0,0,0,2.564,7.881C49.9,89.267,49.34,89.81,48.774,90.337Zm.919,1.262q.76-.786,1.49-1.588c.285.469.589.924.9,1.371q-.615.943-1.163,1.906Zm3.521,4.836c-.276.126-.553.25-.831.367-.586.247-1.174.481-1.765.688.266-.638.567-1.271.882-1.9.148-.3.295-.592.454-.885.358-.664.746-1.318,1.153-1.965.081-.129.164-.258.247-.386s.17-.272.259-.406A34.19,34.19,0,0,1,66.22,80.4c.571-.189,1.135-.389,1.681-.617l.01-.007.985,1.707.212.366C66.6,86.863,61.792,91.627,56.3,94.836c-.137.08-.276.156-.414.234s-.262.149-.394.222Q54.366,95.91,53.214,96.435Zm7.4,3.456c-.127,1.093-.1,2.146-.123,3.15a10.93,10.93,0,0,1-.33,2.813c-.008.029-.02.057-.029.086l-5.974-8.205c.871-.409,1.74-.849,2.6-1.338a24.679,24.679,0,0,0,4,2.643A8.318,8.318,0,0,0,60.618,99.891Zm.376-1.726a23.824,23.824,0,0,1-3.423-2.258,38.092,38.092,0,0,0,9.186-7.727c-.568,1.133-1.158,2.255-1.793,3.349q-.77,1.318-1.606,2.593c-.549.854-1.162,1.649-1.718,2.6A7.252,7.252,0,0,0,60.994,98.165Zm3.879-4.65a42.193,42.193,0,0,0-1.589,5.729q-.5-.2-.98-.428a5.494,5.494,0,0,1,.515-1.478c.411-.863.975-1.749,1.462-2.663C64.49,94.293,64.674,93.9,64.873,93.515Zm-3.322,14.368a8.9,8.9,0,0,0,.49-1.571,12.692,12.692,0,0,0,.187-3.295,24.47,24.47,0,0,1-.053-3.285q.474.213.958.406a15.27,15.27,0,0,0-.187,2.234c0,5.042,0,6.679,2.873,11.372Zm10.676,12.6c-7.683-11.168-7.682-11.506-7.682-18.108a13.277,13.277,0,0,1,.131-1.674c.019-.147.038-.293.061-.444s.041-.295.069-.449c1.018-5.727,4.8-13.942,6.924-17.524h1.1C75,85.862,78.661,94.11,79.652,99.8c.027.154.046.3.069.45s.041.3.06.444a13.714,13.714,0,0,1,.129,1.675C79.91,108.974,79.91,109.312,72.227,120.48ZM79.7,93.747c.16.308.306.623.473.928.487.913,1.051,1.8,1.463,2.663a5.529,5.529,0,0,1,.515,1.478q-.481.223-.974.425A41.943,41.943,0,0,0,79.7,93.747Zm-1.063,19.994c2.867-4.691,2.872-6.328,2.872-11.369a15.671,15.671,0,0,0-.183-2.235q.482-.193.954-.4a24.806,24.806,0,0,1-.053,3.285,12.644,12.644,0,0,0,.186,3.295,9.1,9.1,0,0,0,.49,1.571Zm4.177-17.024c-.555-.945-1.168-1.741-1.717-2.6S80,92.408,79.489,91.529c-.635-1.094-1.225-2.216-1.793-3.35a38.092,38.092,0,0,0,9.186,7.728,23.686,23.686,0,0,1-3.423,2.258A7.252,7.252,0,0,0,82.813,96.717Zm1.5,9.223c-.009-.029-.021-.057-.029-.086a10.927,10.927,0,0,1-.33-2.812c-.022-1,0-2.058-.123-3.151a8.6,8.6,0,0,0-.137-.851,24.627,24.627,0,0,0,4-2.643c.857.489,1.726.929,2.6,1.338ZM92.07,96.8c-.278-.117-.555-.241-.831-.367q-1.15-.525-2.275-1.143c-.132-.072-.263-.148-.394-.222s-.277-.153-.414-.233c-5.494-3.21-10.3-7.974-12.811-12.99l.211-.365.986-1.708.011.008c.545.228,1.109.429,1.681.617A34.2,34.2,0,0,1,90.841,91.948c.089.134.172.271.259.4s.165.258.247.387c.406.647.794,1.3,1.152,1.964.158.294.305.59.454.886.315.63.615,1.262.881,1.9C93.244,97.283,92.656,97.049,92.07,96.8Zm1.461-3.514q-.547-.963-1.163-1.906c.288-.411.568-.828.831-1.257q.725.8,1.48,1.585Zm.4-4.444a24.416,24.416,0,0,0,2.63-8.01,33.476,33.476,0,0,0,8.222-3L95.6,90.453C95.035,89.929,94.483,89.389,93.932,88.844Z" fill="#313437"/>
          <path id="Контур_32" data-name="Контур 32" d="M41.415,65.221a.908.908,0,1,0-.908.908A.908.908,0,0,0,41.415,65.221Z" fill="#313437"/>
          <path id="Контур_33" data-name="Контур 33" d="M103.946,64.313a.908.908,0,1,0,.908.908A.908.908,0,0,0,103.946,64.313Z" fill="#313437"/>
          <path id="Контур_34" data-name="Контур 34" d="M56.005,44.113a.908.908,0,1,0-.908.908A.908.908,0,0,0,56.005,44.113Z" fill="#313437"/>
          <path id="Контур_35" data-name="Контур 35" d="M89.357,43.205a.908.908,0,1,0,.908.908A.907.907,0,0,0,89.357,43.205Z" fill="#313437"/>
          <path id="Контур_36" data-name="Контур 36" d="M107.541,89.4a.908.908,0,1,0-.908.908A.908.908,0,0,0,107.541,89.4Z" fill="#313437"/>
          <path id="Контур_37" data-name="Контур 37" d="M37.821,88.5a.908.908,0,1,0,.908.908A.908.908,0,0,0,37.821,88.5Z" fill="#313437"/>
          <path id="Контур_38" data-name="Контур 38" d="M52.725,106.577a.908.908,0,1,0,.909-.908A.908.908,0,0,0,52.725,106.577Z" fill="#313437"/>
          <path id="Контур_39" data-name="Контур 39" d="M91.728,106.577a.908.908,0,1,0-.908.908A.908.908,0,0,0,91.728,106.577Z" fill="#313437"/>
          <path id="Контур_40" data-name="Контур 40" d="M72.8,101.874l-.02-.443-.02-.444-.129-2.811c-.108-1.738-.192-3.474-.32-5.211a.08.08,0,0,0-.16,0c-.127,1.737-.212,3.473-.32,5.211l-.13,2.811-.02.444-.021.443-.069,1.513a48.758,48.758,0,0,0-.16,5.211,28.132,28.132,0,0,0,.72,5.211.085.085,0,0,0,.06.059.083.083,0,0,0,.1-.059,28.047,28.047,0,0,0,.72-5.211,48.5,48.5,0,0,0-.161-5.211Z" fill="#313437"/>
          <path id="Контур_41" data-name="Контур 41" d="M71.827,65.89c.108,1.738.193,3.474.32,5.211a.081.081,0,0,0,.075.074.079.079,0,0,0,.085-.074c.128-1.737.212-3.473.32-5.211l.24-5.211a48.768,48.768,0,0,0,.16-5.211q-.059-.93-.156-1.861c-.015-.149-.03-.3-.047-.445s-.035-.3-.055-.446a21.724,21.724,0,0,0-.462-2.459.082.082,0,0,0-.06-.059.083.083,0,0,0-.1.059,21.505,21.505,0,0,0-.462,2.459c-.02.149-.037.3-.055.446s-.032.3-.047.445q-.1.93-.156,1.861a48.507,48.507,0,0,0,.161,5.211Z" fill="#313437"/>
        </g>
      </g>
    </g>
  </g>
</svg>
