<svg xmlns="http://www.w3.org/2000/svg" width="26.716" height="60.176" viewBox="0 0 26.716 60.176">
  <g id="decor-left" transform="translate(-10 -16.513)">
    <path id="Контур_337" data-name="Контур 337" d="M13.139,48.071a32.931,32.931,0,0,1,13.782.854c3.109.847,4.435-3.976,1.329-4.821a38.991,38.991,0,0,0-16.44-.854c-3.171.488-1.824,5.307,1.329,4.821" fill="#cc273f"/>
    <path id="Контур_338" data-name="Контур 338" d="M29.834,75.865l6.246-7.289c2.083-2.432-1.438-5.984-3.536-3.536L26.3,72.329c-2.083,2.432,1.438,5.984,3.536,3.536" fill="#cc273f"/>
    <path id="Контур_339" data-name="Контур 339" d="M21.945,21.519a14.093,14.093,0,0,1,8.743,3.737c2.368,2.171,5.914-1.356,3.536-3.536a19.614,19.614,0,0,0-12.279-5.2c-3.213-.2-3.2,4.8,0,5" fill="#cc273f"/>
  </g>
</svg>
