<svg xmlns="http://www.w3.org/2000/svg" width="25.827" height="63.078" viewBox="0 0 25.827 63.078">
  <g id="decor-right" transform="translate(-277.093 -10)">
    <path id="Контур_332" data-name="Контур 332" d="M282.831,24.774l10.5-10.5c2.277-2.279-1.257-5.815-3.535-3.536l-10.5,10.5c-2.277,2.278,1.257,5.815,3.536,3.535" fill="#cc273f"/>
    <path id="Контур_340" data-name="Контур 340" d="M277.926,69.105a15.952,15.952,0,0,0,12.126,3.88c3.163-.35,3.2-5.353,0-5a11.064,11.064,0,0,1-8.591-2.417c-2.445-2.061-6,1.459-3.535,3.536" fill="#cc273f"/>
    <path id="Контур_341" data-name="Контур 341" d="M287.057,45.028a29.471,29.471,0,0,1,12.812,1.432c3.052,1.041,4.363-3.787,1.33-4.821a32.963,32.963,0,0,0-14.142-1.611c-3.168.33-3.2,5.333,0,5" fill="#cc273f"/>
  </g>
</svg>
