<svg id="_020-heart" data-name="020-heart" xmlns="http://www.w3.org/2000/svg" width="45" height="45" viewBox="0 0 45 45">
  <path id="Контур_7" data-name="Контур 7" d="M22.5,0A22.5,22.5,0,1,0,45,22.5,22.5,22.5,0,0,0,22.5,0Zm0,43.5a21,21,0,1,1,21-21A21,21,0,0,1,22.5,43.5Zm0,0" fill="#373531"/>
  <path id="Контур_8" data-name="Контур 8" d="M136.5,136a6,6,0,0,0-5.25,3.1A6,6,0,0,0,120,142c0,3.3,7.915,13.5,11.25,13.5S142.5,145.3,142.5,142A6.007,6.007,0,0,0,136.5,136Zm-5.25,18c-2.278,0-9.75-9.2-9.75-12a4.5,4.5,0,0,1,9,0v.612a.75.75,0,0,0,1.5,0V142a4.5,4.5,0,0,1,9,0C141,144.8,133.528,154,131.25,154Zm0,0" transform="translate(-108.75 -123.25)" fill="#373531"/>
</svg>
