<svg id="_039-search" data-name="039-search" xmlns="http://www.w3.org/2000/svg" width="45" height="45" viewBox="0 0 45 45">
  <path id="Контур_14" data-name="Контур 14" d="M22.5,0A22.5,22.5,0,1,0,45,22.5,22.5,22.5,0,0,0,22.5,0Zm0,43.5a21,21,0,1,1,21-21A21,21,0,0,1,22.5,43.5Zm0,0" fill="#373531"/>
  <path id="Контур_15" data-name="Контур 15" d="M136.611,135.549a9.778,9.778,0,1,0-1.061,1.061l5.135,5.134a.75.75,0,0,0,1.061-1.061Zm-7.4,1.915a8.25,8.25,0,1,1,8.25-8.25A8.25,8.25,0,0,1,129.215,137.464Zm0,0" transform="translate(-108.215 -108.214)" fill="#373531"/>
</svg>
