<svg id="_047-user" data-name="047-user" xmlns="http://www.w3.org/2000/svg" width="45" height="45" viewBox="0 0 45 45" class="nav__icon">
  <path id="Контур_16" data-name="Контур 16" d="M22.5,45A22.5,22.5,0,1,0,0,22.5,22.5,22.5,0,0,0,22.5,45Zm0-43.5a21,21,0,1,1-21,21A21,21,0,0,1,22.5,1.5Zm0,0" fill="#373531"/>
  <path id="Контур_17" data-name="Контур 17" d="M133.542,129.447a13.557,13.557,0,0,0,10.868-5.513.752.752,0,0,0,.129-.6,11.3,11.3,0,0,0-7.7-8.377,6,6,0,1,0-6.587,0,11.3,11.3,0,0,0-7.7,8.375.752.752,0,0,0,.129.6,13.556,13.556,0,0,0,10.868,5.515Zm-4.5-19.5a4.5,4.5,0,1,1,4.5,4.5A4.5,4.5,0,0,1,129.042,109.947Zm4.5,6a9.8,9.8,0,0,1,9.45,7.37,11.966,11.966,0,0,1-18.906,0A9.8,9.8,0,0,1,133.542,115.947Zm0,0" transform="translate(-111.042 -94.197)" fill="#373531"/>
</svg>
