<svg xmlns="http://www.w3.org/2000/svg" width="42" height="42" viewBox="0 0 42 42">
  <g id="Group_26" data-name="Group 26" transform="translate(-1721.5 -2094.5)" opacity="0.66">
    <path id="Path_16" data-name="Path 16" d="M-295.387,257.5a21,21,0,0,1,21,21,21,21,0,0,1-21,21,21,21,0,0,1-21-21A21,21,0,0,1-295.387,257.5Z" transform="translate(2037.887 1836.998)" fill="#ecebea"/>
    <path id="Path_42" data-name="Path 42" d="M-299.387,291.292a.748.748,0,0,1-.53-.22.75.75,0,0,1,0-1.061l11.487-11.487-11.487-11.488a.749.749,0,0,1,0-1.06.749.749,0,0,1,1.06,0l12.018,12.017a.751.751,0,0,1,.22.531.75.75,0,0,1-.22.53l-12.018,12.018A.748.748,0,0,1-299.387,291.292Z" transform="translate(2037.887 1836.998)" fill="#313437"/>
  </g>
</svg>
